<svg width="764" height="468" viewBox="0 0 764 468" fill="none" xmlns="http://www.w3.org/2000/svg">
<path d="M628.992 229.213C628.992 229.213 666.425 232.616 685.387 253.919C685.387 253.919 705.442 229.243 741.438 229.753C750.235 220.012 755.836 208.177 757.589 195.627C759.343 183.077 757.177 170.329 751.343 158.865C745.509 147.401 736.247 137.695 724.637 130.875C713.026 124.056 699.544 120.404 685.76 120.346C671.976 120.287 658.457 123.823 646.778 130.543C635.098 137.263 625.739 146.891 619.789 158.304C613.84 169.717 611.544 182.447 613.171 195.011C614.797 207.576 620.278 219.457 628.976 229.273L628.992 229.213Z" fill="#009444"/>
<path opacity="0.5" d="M628.992 229.213C628.992 229.213 666.425 232.616 685.387 253.919C685.387 253.919 705.442 229.243 741.438 229.753C750.235 220.012 755.836 208.177 757.589 195.627C759.343 183.077 757.177 170.329 751.343 158.865C745.509 147.401 736.247 137.695 724.637 130.875C713.026 124.056 699.544 120.404 685.76 120.346C671.976 120.287 658.457 123.823 646.778 130.543C635.098 137.263 625.739 146.891 619.789 158.304C613.84 169.717 611.544 182.447 613.171 195.011C614.797 207.576 620.278 219.457 628.976 229.273L628.992 229.213Z" fill="white"/>
<path d="M684.129 125.053L682.872 347.735H689.192L684.129 125.053Z" fill="#B8B8B8"/>
<path d="M686.04 247.427C686.04 247.427 698.665 226.545 721.415 220.158C721.415 220.158 697.407 225.39 685.485 243.365L686.04 247.427Z" fill="#B8B8B8"/>
<path d="M686.04 188.272C686.04 188.272 698.665 167.389 721.415 161.002C721.415 161.002 697.407 166.219 685.485 184.209L686.04 188.272Z" fill="#B8B8B8"/>
<path d="M686.04 217.82C686.04 217.82 698.665 196.937 721.415 190.55C721.415 190.55 697.407 195.782 685.485 213.757L686.04 217.82Z" fill="#B8B8B8"/>
<path d="M684.162 203.338C684.162 203.338 671.962 182.47 650.011 176.084C650.011 176.084 673.187 181.301 684.766 199.29L684.162 203.338Z" fill="#B8B8B8"/>
<path d="M684.162 232.346C684.162 232.346 671.962 211.463 650.011 205.092C650.011 205.092 673.187 210.309 684.766 228.284L684.162 232.346Z" fill="#B8B8B8"/>
<path d="M16.3298 229.213C16.3298 229.213 53.7627 232.616 72.7242 253.919C72.7242 253.919 92.7799 229.243 128.776 229.753C137.572 220.012 143.174 208.177 144.927 195.627C146.681 183.077 144.514 170.329 138.68 158.865C132.846 147.401 123.585 137.695 111.974 130.875C100.363 124.056 86.8812 120.404 73.0972 120.346C59.3132 120.287 45.7946 123.823 34.1153 130.543C22.436 137.263 13.0767 146.891 7.12694 158.304C1.17721 169.717 -1.1181 182.447 0.508264 195.011C2.13463 207.576 7.61576 219.457 16.3135 229.273L16.3298 229.213Z" fill="#009444"/>
<path opacity="0.5" d="M16.3298 229.213C16.3298 229.213 53.7627 232.616 72.7242 253.919C72.7242 253.919 92.7799 229.243 128.776 229.753C137.572 220.012 143.174 208.177 144.927 195.627C146.681 183.077 144.514 170.329 138.68 158.865C132.846 147.401 123.585 137.695 111.974 130.875C100.363 124.056 86.8812 120.404 73.0972 120.346C59.3132 120.287 45.7946 123.823 34.1153 130.543C22.436 137.263 13.0767 146.891 7.12694 158.304C1.17721 169.717 -1.1181 182.447 0.508264 195.011C2.13463 207.576 7.61576 219.457 16.3135 229.273L16.3298 229.213Z" fill="white"/>
<path d="M71.4995 125.053L70.2256 347.735H76.5461L71.4995 125.053Z" fill="#B8B8B8"/>
<path d="M73.3937 247.427C73.3937 247.427 86.0183 226.545 108.769 220.158C108.769 220.158 84.7607 225.39 72.8384 243.365L73.3937 247.427Z" fill="#B8B8B8"/>
<path d="M73.3937 188.272C73.3937 188.272 86.0183 167.389 108.769 161.002C108.769 161.002 84.7607 166.219 72.8384 184.209L73.3937 188.272Z" fill="#B8B8B8"/>
<path d="M73.3937 217.82C73.3937 217.82 86.0183 196.937 108.769 190.55C108.769 190.55 84.7607 195.782 72.8384 213.757L73.3937 217.82Z" fill="#B8B8B8"/>
<path d="M71.5157 203.338C71.5157 203.338 59.3157 182.47 37.3655 176.084C37.3655 176.084 60.5406 181.301 72.12 199.29L71.5157 203.338Z" fill="#B8B8B8"/>
<path d="M71.5157 232.346C71.5157 232.346 59.3157 211.463 37.3655 205.092C37.3655 205.092 60.5406 210.309 72.12 228.284L71.5157 232.346Z" fill="#B8B8B8"/>
<path d="M476.892 250.801C476.892 250.801 507.531 253.574 523.047 271.009C523.047 271.009 539.46 250.816 568.923 251.22C576.12 243.246 580.7 233.56 582.132 223.289C583.564 213.019 581.788 202.586 577.011 193.206C572.234 183.825 564.653 175.883 555.149 170.305C545.646 164.726 534.612 161.74 523.331 161.694C512.051 161.648 500.988 164.544 491.432 170.045C481.875 175.546 474.217 183.426 469.349 192.767C464.482 202.108 462.605 212.526 463.938 222.808C465.27 233.09 469.757 242.813 476.876 250.846L476.892 250.801Z" fill="#009444"/>
<path opacity="0.5" d="M476.892 250.801C476.892 250.801 507.531 253.574 523.047 271.009C523.047 271.009 539.46 250.816 568.923 251.22C576.12 243.246 580.7 233.56 582.132 223.289C583.564 213.019 581.788 202.586 577.011 193.206C572.234 183.825 564.653 175.883 555.149 170.305C545.646 164.726 534.612 161.74 523.331 161.694C512.051 161.648 500.988 164.544 491.432 170.045C481.875 175.546 474.217 183.426 469.349 192.767C464.482 202.108 462.605 212.526 463.938 222.808C465.27 233.09 469.757 242.813 476.876 250.846L476.892 250.801Z" fill="white"/>
<path d="M522.034 165.47L521.005 347.735H526.182L522.034 165.47Z" fill="#B8B8B8"/>
<path d="M523.585 265.642C523.585 265.642 533.94 248.552 552.542 243.32C552.542 243.32 532.944 247.592 523.145 262.314L523.585 265.642Z" fill="#B8B8B8"/>
<path d="M523.585 217.22C523.585 217.22 533.94 200.13 552.542 194.913C552.542 194.913 532.944 199.185 523.145 213.892L523.585 217.22Z" fill="#B8B8B8"/>
<path d="M523.585 241.431C523.585 241.431 533.94 224.341 552.542 219.109C552.542 219.109 532.944 223.381 523.145 238.103L523.585 241.431Z" fill="#B8B8B8"/>
<path d="M522.05 229.558C522.05 229.558 512.071 212.468 494.106 207.251C494.106 207.251 513.068 211.523 522.557 226.23L522.05 229.558Z" fill="#B8B8B8"/>
<path d="M522.05 253.289C522.05 253.289 512.071 236.199 494.106 230.982C494.106 230.982 513.068 235.255 522.557 249.976L522.05 253.289Z" fill="#B8B8B8"/>
<path d="M180.45 250.801C180.45 250.801 211.089 253.574 226.604 271.009C226.604 271.009 242.936 250.816 272.481 251.22C279.677 243.246 284.258 233.56 285.69 223.289C287.122 213.019 285.346 202.586 280.569 193.206C275.792 183.825 268.21 175.883 258.707 170.305C249.204 164.726 238.169 161.74 226.889 161.694C215.609 161.648 204.546 164.544 194.989 170.045C185.432 175.546 177.774 183.426 172.907 192.767C168.039 202.108 166.163 212.526 167.495 222.808C168.828 233.09 173.315 242.813 180.434 250.846L180.45 250.801Z" fill="#009444"/>
<path opacity="0.5" d="M180.45 250.801C180.45 250.801 211.089 253.574 226.604 271.009C226.604 271.009 242.936 250.816 272.481 251.22C279.677 243.246 284.258 233.56 285.69 223.289C287.122 213.019 285.346 202.586 280.569 193.206C275.792 183.825 268.21 175.883 258.707 170.305C249.204 164.726 238.169 161.74 226.889 161.694C215.609 161.648 204.546 164.544 194.989 170.045C185.432 175.546 177.774 183.426 172.907 192.767C168.039 202.108 166.163 212.526 167.495 222.808C168.828 233.09 173.315 242.813 180.434 250.846L180.45 250.801Z" fill="white"/>
<path d="M225.592 165.47L224.563 347.735H229.74L225.592 165.47Z" fill="#B8B8B8"/>
<path d="M227.225 265.642C227.225 265.642 237.579 248.552 256.182 243.32C256.182 243.32 236.583 247.592 226.784 262.314L227.225 265.642Z" fill="#B8B8B8"/>
<path d="M227.225 217.22C227.225 217.22 237.579 200.13 256.182 194.913C256.182 194.913 236.583 199.185 226.784 213.892L227.225 217.22Z" fill="#B8B8B8"/>
<path d="M227.225 241.431C227.225 241.431 237.579 224.341 256.182 219.109C256.182 219.109 236.583 223.381 226.784 238.103L227.225 241.431Z" fill="#B8B8B8"/>
<path d="M225.592 229.558C225.592 229.558 215.629 212.468 197.664 207.326C197.664 207.326 216.626 211.598 226.114 226.305L225.592 229.558Z" fill="#B8B8B8"/>
<path d="M225.592 253.289C225.592 253.289 215.613 236.199 197.648 230.982C197.648 230.982 216.609 235.255 226.098 249.976L225.592 253.289Z" fill="#B8B8B8"/>
<path d="M27.5989 348.529H732.39" stroke="#263238" stroke-width="1.04742" stroke-miterlimit="10"/>
<path d="M278.687 67.4866C278.687 55.8983 285.35 49.2721 297.518 49.2721C309.685 49.2721 316.365 55.8983 316.365 67.4866V105.175C316.365 116.763 309.701 123.389 297.518 123.389C285.334 123.389 278.687 116.763 278.687 105.175V67.4866ZM291.099 105.894C291.099 111.066 293.582 113.03 297.518 113.03C301.454 113.03 303.953 111.066 303.953 105.894V66.767C303.953 61.595 301.47 59.6311 297.518 59.6311C293.565 59.6311 291.099 61.595 291.099 66.767V105.894Z" fill="#263238"/>
<path d="M325.723 67.4866C325.723 55.8983 332.37 49.2721 344.554 49.2721C356.738 49.2721 363.385 55.8983 363.385 67.4866V105.175C363.385 116.763 356.721 123.389 344.554 123.389C332.387 123.389 325.723 116.763 325.723 105.175V67.4866ZM338.119 105.894C338.119 111.066 340.602 113.03 344.554 113.03C348.506 113.03 350.972 111.066 350.972 105.894V66.767C350.972 61.595 348.49 59.6311 344.554 59.6311C340.618 59.6311 338.119 61.595 338.119 66.767V105.894Z" fill="#263238"/>
<path d="M410.519 68.0112V77.4258C410.519 89.0291 404.427 95.4154 392.031 95.4154H386.168V122.64H373.756V50.1116H392.031C404.427 50.1116 410.519 56.4229 410.519 68.0112ZM386.168 60.5156V85.0414H392.031C395.967 85.0414 398.107 83.3923 398.107 78.2203V67.3516C398.107 62.1646 395.967 60.5156 392.031 60.5156H386.168Z" fill="#263238"/>
<path d="M435.899 49.2721C447.952 49.2721 454.158 55.8983 454.158 67.4866V69.7652H442.432V66.767C442.432 61.595 440.178 59.6311 436.226 59.6311C432.273 59.6311 430.02 61.595 430.02 66.767C430.02 81.6684 454.272 84.4718 454.272 105.175C454.272 116.763 447.952 123.389 435.785 123.389C423.617 123.389 417.281 116.763 417.281 105.175V100.677H429.007V105.849C429.007 111.021 431.489 112.895 435.442 112.895C439.394 112.895 441.86 111.021 441.86 105.849C441.86 90.948 417.623 88.1446 417.623 67.4416C417.623 55.9133 423.83 49.2721 435.899 49.2721Z" fill="#263238"/>
<path d="M465.329 106.509L463.696 80.3341V50.1116H476.108V80.3341L474.475 106.509H465.329ZM475.929 111.591V122.565H464.039V111.591H475.929Z" fill="#263238"/>
<path opacity="0.3" d="M220.022 420.877C220.022 425.375 189.922 428.958 152.767 428.958C115.612 428.958 85.512 425.345 85.512 420.877C85.512 416.41 115.628 412.797 152.767 412.797C189.906 412.797 220.022 416.425 220.022 420.877Z" fill="black"/>
<path opacity="0.3" d="M360.82 420.877C360.82 425.375 330.704 428.958 293.565 428.958C256.426 428.958 226.31 425.345 226.31 420.877C226.31 416.41 256.426 412.797 293.565 412.797C330.704 412.797 360.82 416.425 360.82 420.877Z" fill="black"/>
<path opacity="0.3" d="M547.332 420.877C547.332 425.375 517.232 428.958 480.093 428.958C442.954 428.958 412.838 425.345 412.838 420.877C412.838 416.41 442.938 412.797 480.093 412.797C517.248 412.797 547.332 416.425 547.332 420.877Z" fill="black"/>
<path opacity="0.3" d="M703.139 420.877C703.139 425.375 673.023 428.958 635.884 428.958C598.745 428.958 568.564 425.345 568.564 420.877C568.564 416.41 598.68 412.797 635.819 412.797C672.958 412.797 703.139 416.425 703.139 420.877Z" fill="black"/>
<path d="M487.361 184.494C487.361 184.494 484.601 194.988 484.601 196.757C484.599 197.851 484.468 198.942 484.209 200.01C484.209 200.01 478.313 206.501 479.097 208.3C480.05 209.699 481.414 210.821 483.033 211.538C483.033 211.538 486.169 222.032 489.321 222.722C492.558 223.277 495.831 223.637 499.12 223.801L500.296 232.451L516.007 230.292L512.088 217.31L513.721 206.126C513.721 206.126 516.465 201.449 513.721 193.878C510.977 186.308 505.081 185.948 501.145 185.948C496.526 185.679 491.926 185.194 487.361 184.494Z" fill="white" stroke="#263238" stroke-width="1.04742" stroke-linecap="round" stroke-linejoin="round"/>
<path d="M494.433 179.097C494.433 179.097 480.681 178.722 481.073 181.975C481.465 185.228 495.609 189.471 495.609 189.471C495.609 189.471 490.889 192.349 493.241 195.243C495.592 198.136 501.096 200.655 501.096 200.655C501.096 200.655 499.463 206.786 501.896 207.146C504.33 207.506 505.816 204.252 506.208 203.173C506.6 202.094 510.928 202.454 512.104 205.332C512.769 206.828 513.166 208.412 513.28 210.024C513.28 210.024 518 197.042 518.784 191.27C519.568 185.498 501.896 179.097 494.433 179.097Z" fill="#263238" stroke="#263238" stroke-width="1.04742" stroke-linecap="round" stroke-linejoin="round"/>
<path d="M503.138 207.326C503.138 207.326 507.89 197.731 510.732 202.454C513.574 207.176 512.365 212.093 509.573 212.618C506.78 213.142 504.444 213.652 504.444 213.652" fill="white"/>
<path d="M503.138 207.326C503.138 207.326 507.89 197.731 510.732 202.454C513.574 207.176 512.365 212.093 509.573 212.618C506.78 213.142 504.444 213.652 504.444 213.652" stroke="#263238" stroke-width="1.04742" stroke-linecap="round" stroke-linejoin="round"/>
<path d="M483.817 307.453C483.049 308.277 470.457 333.058 468.889 341.348C467.321 349.638 457.114 399.05 456.706 401.209C456.297 403.367 434.723 407.7 433.139 408.06C431.554 408.419 434.772 412.392 439.426 413.472C444.081 414.551 457.506 419.603 460.658 416.71C463.81 413.816 468.122 397.596 469.298 395.797C470.474 393.998 492.587 346.175 492.587 346.175C492.587 346.175 503.921 323.224 506.273 321.05C508.625 318.876 503.481 309.267 501.504 306.373C499.528 303.48 489.321 301.681 483.817 307.453Z" fill="#263238" stroke="#263238" stroke-width="1.04742" stroke-linecap="round" stroke-linejoin="round"/>
<path d="M481.465 307.768C481.465 307.768 486.969 331.934 489.713 340.584C492.281 347.849 496.144 354.672 501.145 360.777C504.297 364.75 519.617 399.754 519.617 399.754L521.969 405.166C521.969 405.166 521.185 407.325 516.873 410.203C512.561 413.082 500.361 417.774 503.513 418.868C506.665 419.963 519.225 419.948 525.121 419.588C530.197 419.258 534.955 417.199 538.464 413.816C540.832 411.283 534.544 404.072 534.544 402.633C534.544 401.194 520.793 357.209 520.009 355.035C519.225 352.862 515.289 337.376 515.289 337.376V319.761C515.289 319.761 517.265 316.523 517.265 309.267C517.265 302.011 511.369 300.602 511.369 300.602L479.146 303.495L481.465 307.768Z" fill="#263238" stroke="#263238" stroke-width="1.04742" stroke-linecap="round" stroke-linejoin="round"/>
<path d="M478.738 305.654C478.738 305.654 479.538 311.785 481.89 312.145C484.242 312.505 508.593 318.636 519.208 311.426C519.208 311.426 521.168 306.014 519.992 304.575C518.817 303.135 516.056 303.855 501.929 303.855C487.802 303.855 478.738 303.855 478.738 305.654Z" fill="#009444" stroke="#263238" stroke-width="1.04742" stroke-linecap="round" stroke-linejoin="round"/>
<path d="M514.848 224.881C514.848 224.881 500.312 226.68 494.024 232.376C487.736 238.073 482.249 248.612 479.505 258.341C476.761 268.071 474.785 303.78 478.705 305.579C482.625 307.378 515.632 309.192 521.168 307.078C526.705 304.964 520.776 287.964 520.776 281.473C520.776 274.982 527.064 252.989 525.888 240.741C524.712 228.494 514.848 224.881 514.848 224.881Z" fill="#009444" stroke="#263238" stroke-width="1.04742" stroke-linecap="round" stroke-linejoin="round"/>
<path d="M462.406 262.359C462.226 247.517 455.628 234.85 446.858 229.378V226.38L422.686 226.604C409.082 226.739 398.188 243.095 398.466 263.033C398.744 282.972 409.898 299.118 423.519 299.013L447.691 298.788V295.79C456.183 289.988 462.487 277.2 462.406 262.359Z" fill="#263238" stroke="#263238" stroke-width="1.04742" stroke-linecap="round" stroke-linejoin="round"/>
<path d="M473.25 262.254C473.07 246.663 466.521 233.351 457.31 227.564V224.371L446.956 224.476C432.649 224.611 421.265 241.746 421.51 262.749C421.755 283.752 433.531 300.662 447.837 300.527L458.192 300.422V297.244C467.191 291.277 473.43 277.785 473.25 262.254Z" fill="white" stroke="#263238" stroke-width="1.04742" stroke-linecap="round" stroke-linejoin="round"/>
<path d="M483.637 262.149C483.882 283.137 472.483 300.287 458.192 300.422C443.902 300.557 432.061 283.647 431.865 262.659C431.669 241.671 443.02 224.521 457.31 224.371C471.601 224.221 483.36 241.146 483.637 262.149Z" fill="#737373" stroke="#263238" stroke-width="1.04742" stroke-linecap="round" stroke-linejoin="round"/>
<path d="M477.692 261.504C477.807 271.444 472.401 279.569 465.623 279.644C458.845 279.719 453.26 271.683 453.145 261.654C453.031 251.625 458.437 243.665 465.215 243.515C471.992 243.365 477.578 251.55 477.692 261.504Z" fill="#263238" stroke="#263238" stroke-width="1.04742" stroke-linecap="round" stroke-linejoin="round"/>
<path d="M670.149 336.251C671.497 327.011 672.07 317.689 671.863 308.367C666.556 310.616 635.59 311.441 632.748 311.5C629.906 311.56 598.941 310.616 593.633 308.367C593.399 317.687 593.945 327.009 595.266 336.251C597.406 348.409 616.22 397.086 616.645 399.44C617.196 401.71 617.91 403.943 618.784 406.126C618.784 406.126 608.087 413.187 603.383 415.93C598.68 418.674 602.109 419.858 606.813 419.858C611.517 419.858 621.349 418.674 624.337 418.674C626.983 418.674 631.589 416.56 632.667 416.05C633.745 416.56 638.35 418.674 640.98 418.674C643.985 418.674 653.817 419.858 658.52 419.858C663.224 419.858 666.686 418.674 661.95 415.93C657.214 413.187 646.549 406.126 646.549 406.126C647.423 403.943 648.138 401.71 648.688 399.44C649.195 397.041 668.009 348.364 670.149 336.251Z" fill="#263238" stroke="#263238" stroke-width="1.04742" stroke-linecap="round" stroke-linejoin="round"/>
<path d="M626.281 232.046C626.281 232.046 609.737 237.009 601.195 241.986C592.653 246.963 584.079 273.917 584.079 274.967C583.588 276.845 582.921 278.68 582.087 280.453C582.087 280.453 573.529 278.624 571.83 285.161C570.132 291.697 580.372 300.077 585.794 300.347C591.216 300.617 592.915 299.043 592.915 299.043C592.915 299.043 589.501 305.324 590.922 307.933C592.343 310.541 604.331 320.24 627.996 319.926C651.661 319.611 668.826 315.998 671.325 312.865C673.823 309.731 674.183 303.18 674.183 303.18C674.183 303.18 683.018 301.081 686.154 295.849C689.29 290.618 688.718 285.116 687.003 279.629C685.289 274.142 676.453 258.206 670.475 249.301C664.498 240.397 651.939 235.434 645.977 233.86C640.016 232.286 630.266 232.046 626.281 232.046Z" fill="#009444" stroke="#263238" stroke-width="1.04742" stroke-linecap="round" stroke-linejoin="round"/>
<path d="M631.295 254.084C633.663 253.364 641.094 247.308 643.952 241.251C645.083 238.932 645.879 236.488 646.32 233.98L645.945 233.875C639.967 232.301 630.266 232.046 626.346 232.046C626.346 232.046 622.884 233.081 618.311 234.685C618.339 237.925 619.003 241.135 620.271 244.159C622.851 250.216 628.992 254.818 631.295 254.084Z" fill="white" stroke="#263238" stroke-width="1.04742" stroke-linecap="round" stroke-linejoin="round"/>
<path d="M658.488 266.317C658.488 266.317 665.331 299.822 673.089 303.27" stroke="#263238" stroke-width="1.04742" stroke-linecap="round" stroke-linejoin="round"/>
<path d="M592.915 299.043C592.915 299.043 601.473 269.465 602.044 266.586" stroke="#263238" stroke-width="1.04742" stroke-linecap="round" stroke-linejoin="round"/>
<path d="M669.544 281.458C669.544 281.458 664.808 282.432 664.808 285.581" stroke="#263238" stroke-width="1.04742" stroke-linecap="round" stroke-linejoin="round"/>
<path d="M589.077 281.938C589.077 281.938 594.352 285.086 593.829 289.928" stroke="#263238" stroke-width="1.04742" stroke-linecap="round" stroke-linejoin="round"/>
<path d="M624.419 418.704C627.065 418.704 631.67 416.59 632.748 416.08C633.826 416.59 638.432 418.704 641.061 418.704C644.066 418.704 653.898 419.888 658.602 419.888C663.306 419.888 666.768 418.704 662.032 415.96C657.932 413.577 649.342 407.94 647.153 406.501C642.107 410.728 632.128 409.679 632.128 409.679C630.106 409.399 628.105 409.009 626.134 408.51C623.145 407.715 618.866 406.156 618.866 406.156C618.866 406.156 608.169 413.217 603.465 415.96C598.761 418.704 602.191 419.888 606.895 419.888C611.598 419.888 621.43 418.704 624.419 418.704Z" fill="#009444" stroke="#263238" stroke-width="1.04742" stroke-linecap="round" stroke-linejoin="round"/>
<path d="M632.128 406.216V337.765" stroke="white" stroke-width="1.04742" stroke-linecap="round" stroke-linejoin="round"/>
<path d="M632.749 416.005L632.128 409.604V406.216" stroke="#263238" stroke-width="1.04742" stroke-linecap="round" stroke-linejoin="round"/>
<path d="M626.134 335.412H638.53" stroke="white" stroke-width="1.04742" stroke-linecap="round" stroke-linejoin="round"/>
<path d="M609.933 192.769C609.933 192.769 601.048 197.656 602.371 201.944C603.694 206.231 607.711 207.056 606.829 209.439C605.948 211.823 602.861 213.322 606.372 214.821C608.372 215.643 610.464 216.262 612.611 216.665C612.611 216.665 615.877 227.069 621.496 228.898C627.114 230.727 636.848 229.513 643.74 228.703C646.068 228.494 648.272 227.639 650.057 226.252C651.843 224.865 653.126 223.011 653.735 220.938C654.405 218.704 650.844 221.358 649.064 218.899C647.284 216.44 649.962 210.129 651.955 204.612C653.947 199.095 647.954 188.691 640.179 185.228C632.405 181.765 617.56 183.579 609.933 192.769Z" fill="#263238" stroke="#263238" stroke-width="1.04742" stroke-linecap="round" stroke-linejoin="round"/>
<path d="M624.86 228.314C623.73 231.735 622.964 235.25 622.574 238.808C622.28 243.305 626.281 248.237 630.56 247.967C634.839 247.697 638.53 239.857 639.102 235.974C639.673 232.091 637.681 221.583 637.681 221.583C637.681 221.583 631.148 221.852 628.551 223.936C627.026 225.164 625.773 226.651 624.86 228.314Z" fill="white" stroke="#263238" stroke-width="1.04742" stroke-linecap="round" stroke-linejoin="round"/>
<path d="M619.062 198.481C619.062 198.481 619.274 204.597 625.954 210.474C629.97 214.038 634.731 216.818 639.951 218.644C639.834 219.984 639.458 221.294 638.84 222.512C638.55 223.021 638.097 223.437 637.543 223.705C636.989 223.973 636.359 224.08 635.737 224.011H633.5C633.5 224.011 630.233 231.042 626.281 232.061C622.328 233.081 612.611 232.376 611.272 223.396C609.932 214.417 609.72 207.071 610.831 205.227C611.941 203.383 619.062 198.481 619.062 198.481Z" fill="white" stroke="#263238" stroke-width="1.04742" stroke-linecap="round" stroke-linejoin="round"/>
<path d="M688.947 277.485C689.96 275.61 690.575 273.575 690.76 271.489C690.76 268.76 685.239 264.847 684.227 263.873C683.214 262.899 682.202 263.003 681.989 264.368C681.986 265.133 682.154 265.892 682.483 266.596C682.812 267.299 683.294 267.934 683.9 268.46C684.728 269.059 685.328 269.883 685.615 270.814C685.713 271.489 683.786 274.802 684.749 276.945C685.713 279.089 688.424 279.734 688.947 277.485Z" fill="white" stroke="#263238" stroke-width="1.04742" stroke-linecap="round" stroke-linejoin="round"/>
<path d="M467.762 262.179C467.762 262.179 491.803 269.24 506.257 285.73C520.711 302.221 530.2 299.852 548.165 294.365C566.13 288.879 572.973 269.24 597.782 285.73C622.59 302.221 627.718 308.487 648.247 299.073C668.777 289.658 679.883 266.886 698.713 274.727C717.544 282.567 708.97 322.699 710.685 342.188C712.4 361.676 709.819 410.503 714.098 416.785C718.377 423.066 762 418.284 762 418.284" stroke="#263238" stroke-width="3.14226" stroke-linecap="round" stroke-linejoin="round"/>
<path d="M512.79 235.974C512.79 235.974 508.005 228.808 500.949 230.682C493.485 232.661 489.631 242.45 487.884 248.552C486.136 254.653 484.96 261.249 481.759 266.931C481.759 266.931 467.616 266.706 459.727 264.608C453.708 262.885 447.789 260.884 441.991 258.611C441.991 258.611 439.198 255.028 437.222 254.323C435.246 253.619 430.117 252.24 429.742 253.319C429.366 254.398 435.687 257.951 435.687 257.951C435.687 257.951 423.927 259.45 422.752 260.605C421.576 261.759 431.065 265.207 431.065 265.207C431.065 265.207 434.609 266.257 443.232 264.368C443.232 264.368 474.867 282.807 481.171 284.921C487.475 287.035 490.97 287.709 495.266 280.094C499.561 272.478 513.819 253.589 516.089 245.988" fill="#009444"/>
<path d="M512.79 235.974C512.79 235.974 508.005 228.808 500.949 230.682C493.485 232.661 489.631 242.45 487.884 248.552C486.136 254.653 484.96 261.249 481.759 266.931C481.759 266.931 467.616 266.706 459.727 264.608C453.708 262.885 447.789 260.884 441.991 258.611C441.991 258.611 439.198 255.028 437.222 254.323C435.246 253.619 430.117 252.24 429.742 253.319C429.366 254.398 435.687 257.951 435.687 257.951C435.687 257.951 423.927 259.45 422.752 260.605C421.576 261.759 431.065 265.207 431.065 265.207C431.065 265.207 434.609 266.257 443.232 264.368C443.232 264.368 474.867 282.807 481.171 284.921C487.475 287.035 490.97 287.709 495.266 280.094C499.561 272.478 513.819 253.589 516.089 245.988" stroke="#263238" stroke-width="1.04742" stroke-linecap="round" stroke-linejoin="round"/>
<path d="M450.206 261.669C445.584 260.08 442.04 258.671 442.04 258.671C442.04 258.671 439.247 255.088 437.271 254.383C435.295 253.679 430.166 252.3 429.791 253.379C429.415 254.458 435.736 258.011 435.736 258.011C435.736 258.011 423.977 259.511 422.801 260.665C421.625 261.819 431.114 265.267 431.114 265.267C431.114 265.267 434.658 266.317 443.281 264.428L447.707 266.991L450.206 261.669Z" fill="white" stroke="#263238" stroke-width="1.04742" stroke-linecap="round" stroke-linejoin="round"/>
<path d="M572.141 280.244C571.127 278.368 570.512 276.333 570.328 274.247C570.328 271.519 575.864 267.621 576.86 266.646C577.857 265.672 578.869 265.777 579.082 267.141C579.084 267.907 578.916 268.665 578.588 269.369C578.259 270.073 577.777 270.708 577.171 271.234C576.343 271.833 575.743 272.657 575.456 273.587C575.358 274.247 577.285 277.575 576.322 279.719C575.358 281.863 572.663 282.477 572.141 280.244Z" fill="white" stroke="#263238" stroke-width="1.04742" stroke-linecap="round" stroke-linejoin="round"/>
<path d="M575.946 272.013C575.946 272.013 571.389 279.734 574.035 282.507C576.681 285.281 579.245 276.271 579.735 273.782C580.225 271.294 577.628 268.79 575.946 272.013Z" fill="white" stroke="#263238" stroke-width="1.04742" stroke-linecap="round" stroke-linejoin="round"/>
<path d="M579.702 274.787C579.702 274.787 575.146 282.507 577.791 285.281C580.437 288.054 583.001 279.044 583.491 276.556C583.981 274.067 581.384 271.474 579.702 274.787Z" fill="white" stroke="#263238" stroke-width="1.04742" stroke-linecap="round" stroke-linejoin="round"/>
<path d="M583.834 275.431C583.834 275.431 579.277 283.152 581.923 285.925C584.569 288.699 587.133 279.689 587.623 277.2C588.113 274.712 585.516 272.193 583.834 275.431Z" fill="white" stroke="#263238" stroke-width="1.04742" stroke-linecap="round" stroke-linejoin="round"/>
<path d="M589.126 275.491C589.126 275.491 584.879 281.488 587.198 283.752C589.518 286.015 592.016 278.894 592.506 276.841C592.996 274.787 590.693 272.793 589.126 275.491Z" fill="white" stroke="#263238" stroke-width="1.04742" stroke-linecap="round" stroke-linejoin="round"/>
<path d="M685.909 272.313C685.909 272.313 690.466 280.034 687.82 282.807C685.174 285.58 682.61 276.556 682.12 274.067C681.63 271.578 684.227 269.075 685.909 272.313Z" fill="white" stroke="#263238" stroke-width="1.04742" stroke-linecap="round" stroke-linejoin="round"/>
<path d="M682.153 275.012C682.153 275.012 686.709 282.732 684.064 285.506C681.418 288.279 678.854 279.254 678.364 276.766C677.874 274.277 680.471 271.788 682.153 275.012Z" fill="white" stroke="#263238" stroke-width="1.04742" stroke-linecap="round" stroke-linejoin="round"/>
<path d="M677.988 275.731C677.988 275.731 682.545 283.452 679.899 286.225C677.253 288.999 674.689 279.989 674.215 277.485C673.742 274.982 676.355 272.493 677.988 275.731Z" fill="white" stroke="#263238" stroke-width="1.04742" stroke-linecap="round" stroke-linejoin="round"/>
<path d="M672.729 275.791C672.729 275.791 676.975 281.863 674.656 284.051C672.337 286.24 669.838 279.194 669.365 277.14C668.891 275.087 671.161 273.093 672.729 275.791Z" fill="white" stroke="#263238" stroke-width="1.04742" stroke-linecap="round" stroke-linejoin="round"/>
<path d="M110.81 361.212V369.727C107.591 372.956 105.276 376.856 104.065 381.09C102.089 388.046 95.8992 417.984 97.5324 418.764C99.1656 419.543 114.534 422.766 119.434 422.092C125.052 421.312 129.837 421.582 127.012 418.734C124.186 415.885 109.34 407.925 109.34 407.925C109.34 407.925 125.672 386.247 129.298 378.242C132.924 370.237 133.512 357.854 133.512 357.854L111.594 357.089L110.81 361.212Z" fill="white" stroke="#263238" stroke-width="1.04742" stroke-linecap="round" stroke-linejoin="round"/>
<path d="M119.434 422.092C125.052 421.312 129.837 421.582 127.012 418.734C124.186 415.885 109.34 407.925 109.34 407.925L108.785 411.013L98.0876 409.814C97.3037 414.821 96.9607 418.494 97.5323 418.809C99.2798 419.528 114.534 422.766 119.434 422.092Z" fill="#263238" stroke="#263238" stroke-width="1.04742" stroke-linecap="round" stroke-linejoin="round"/>
<path d="M164.51 365.619L167.041 369.757C165.992 371.614 165.375 373.651 165.228 375.739C165.082 377.827 165.41 379.92 166.192 381.885C168.724 389.111 174.636 415.69 174.636 417.234C174.636 418.779 178.278 419.813 181.169 419.813C184.059 419.813 192.062 420.323 193.189 420.323C194.316 420.323 202.466 421.612 205.275 420.068C208.084 418.524 201.698 415.42 197.484 413.621C193.271 411.823 183.994 407.175 183.994 407.175C183.994 407.175 186.232 386.007 186.232 376.713C186.232 367.418 188.485 364.33 185.399 358.648C182.312 352.967 162.909 361.242 162.909 361.242L164.51 365.619Z" fill="white" stroke="#263238" stroke-width="1.04742" stroke-linecap="round" stroke-linejoin="round"/>
<path d="M197.403 413.621C193.189 411.807 183.912 407.175 183.912 407.175L182.785 411.043L173.754 412.542C174.293 415.121 174.636 416.89 174.636 417.249C174.636 418.748 178.278 419.828 181.169 419.828C184.059 419.828 192.062 420.338 193.189 420.338C194.316 420.338 202.466 421.627 205.275 420.083C208.084 418.539 201.616 415.42 197.403 413.621Z" fill="#263238" stroke="#263238" stroke-width="1.04742" stroke-linecap="round" stroke-linejoin="round"/>
<path d="M149.37 193.833C147.166 190.376 144.647 187.096 141.841 184.029C137.97 180.026 125.836 180.251 120.511 185.528C115.187 190.805 116.869 200.22 118.878 202.888C120.887 205.557 124.937 218.029 124.937 218.029L125.901 226.934L148.455 234.28L143.85 219.813C143.85 219.813 152.587 218.314 153.306 215.811C154.025 213.307 151.852 204.897 151.852 204.897C151.852 204.897 154.76 203.113 154.515 201.554C154.27 199.995 149.37 193.833 149.37 193.833Z" fill="white" stroke="#263238" stroke-width="1.04742" stroke-linecap="round" stroke-linejoin="round"/>
<path d="M123.419 203.428C123.419 203.428 127.273 206.426 129.38 202.993C131.487 199.56 133.087 196.202 133.087 193.294C133.087 190.386 125.166 187.972 130.441 186.023C135.717 184.074 139.522 188.407 141.874 184.059C144.226 179.712 142.086 179.247 129.413 179.247C116.739 179.247 110.402 185.064 113.081 192.334C115.223 197.704 117.873 202.891 121.002 207.835L123.419 203.428Z" fill="#263238" stroke="#263238" stroke-width="1.04742" stroke-linecap="round" stroke-linejoin="round"/>
<path d="M150.089 198.975C150.089 200.075 149.733 201.151 149.068 202.065C148.402 202.98 147.456 203.693 146.348 204.114C145.241 204.535 144.023 204.645 142.848 204.43C141.672 204.216 140.593 203.686 139.745 202.908C138.898 202.13 138.321 201.139 138.087 200.061C137.853 198.982 137.973 197.863 138.432 196.847C138.89 195.831 139.667 194.962 140.663 194.351C141.66 193.74 142.831 193.414 144.03 193.414C145.637 193.414 147.178 194 148.314 195.043C149.45 196.086 150.089 197.5 150.089 198.975Z" stroke="#263238" stroke-width="1.04742" stroke-linecap="round" stroke-linejoin="round"/>
<path d="M149.207 194.043C149.912 193.778 150.666 193.641 151.428 193.639C152.69 193.641 153.915 194.027 154.912 194.737C155.908 195.447 156.621 196.44 156.936 197.562C157.252 198.683 157.153 199.869 156.656 200.933C156.159 201.997 155.291 202.88 154.188 203.443" stroke="#263238" stroke-width="1.04742" stroke-linecap="round" stroke-linejoin="round"/>
<path d="M137.97 198.976L123.418 203.428" stroke="#263238" stroke-width="1.04742" stroke-linecap="round" stroke-linejoin="round"/>
<path d="M127.599 206.321C127.599 206.321 124.692 200.759 121.785 201.824C118.878 202.888 120.332 211.628 123.239 212.513C124.216 212.715 125.231 212.699 126.2 212.467C127.169 212.235 128.063 211.793 128.808 211.178C128.808 211.178 131.242 215.856 134.149 217.175" fill="white"/>
<path d="M127.599 206.321C127.599 206.321 124.692 200.759 121.785 201.824C118.878 202.888 120.332 211.628 123.239 212.513C124.216 212.715 125.231 212.699 126.2 212.467C127.169 212.235 128.063 211.793 128.808 211.178C128.808 211.178 131.242 215.856 134.149 217.175" stroke="#263238" stroke-width="1.04742" stroke-linecap="round" stroke-linejoin="round"/>
<path d="M108.524 306.268L106.711 327.586L101.289 359.143C101.289 359.143 113.962 368.273 125.787 368.273C137.611 368.273 140.861 366.893 140.861 366.893L147.492 334.512L154.123 368.557C154.123 368.557 167.188 366.624 175.844 364.675C181.863 363.137 187.568 360.707 192.732 357.479L175.24 315.683L171.451 294.125C171.451 294.125 151.853 295.79 140.077 296.344C128.302 296.899 112.64 294.125 112.64 294.125L108.524 306.268Z" fill="#009444" stroke="#263238" stroke-width="1.04742" stroke-linecap="round" stroke-linejoin="round"/>
<path d="M120.952 221.088C120.952 221.088 148.717 229.978 157.291 238.613C162.027 243.41 167.335 276.241 169.246 284.261C171.157 292.282 174.489 308.247 174.489 308.247C174.489 308.247 157.552 315.263 144.454 315.518C131.356 315.773 106.221 310.256 106.221 310.256C106.221 310.256 109.21 274.682 109.21 258.146C109.21 241.611 109.487 230.817 112.476 225.555C112.492 225.6 117.408 220.578 120.952 221.088Z" fill="#263238" stroke="#263238" stroke-width="1.04742" stroke-linecap="round" stroke-linejoin="round"/>
<path d="M113.652 312.835C113.652 312.835 115.155 336.086 113.652 344.676C112.597 350.218 110.775 355.614 108.23 360.732" stroke="#263238" stroke-width="1.04742" stroke-linecap="round" stroke-linejoin="round"/>
<path d="M114.256 323.913C116.524 323.198 118.55 321.955 120.137 320.304C121.723 318.654 122.814 316.653 123.304 314.499" stroke="#263238" stroke-width="1.04742" stroke-linecap="round" stroke-linejoin="round"/>
<path d="M102.791 354.646C102.791 354.646 117.882 366.549 141.4 362.141" stroke="#263238" stroke-width="1.04742" stroke-linecap="round" stroke-linejoin="round"/>
<path d="M153.469 361.556C153.469 361.556 178.196 359.068 189.057 352.427" stroke="#263238" stroke-width="1.04742" stroke-linecap="round" stroke-linejoin="round"/>
<path d="M264.07 210.324C264.07 210.324 261.685 211.943 253.372 217.52C245.059 223.097 251.608 231.522 251.608 231.522C251.608 231.522 245.663 232.376 237.726 240.037C229.789 247.697 241.27 260.845 252 262.899C262.73 264.952 275.273 252.764 279.03 241.461C282.786 230.157 277.821 213.112 275.322 209.589C272.824 206.066 264.07 210.324 264.07 210.324Z" fill="#263238" stroke="#263238" stroke-width="1.04742" stroke-linecap="round" stroke-linejoin="round"/>
<path d="M295.558 208.825C295.558 208.825 299.69 202.963 295.95 194.463C292.21 185.963 281.039 182.08 270.162 188.242C266.536 190.222 263.724 193.245 262.162 196.842C260.6 200.439 260.375 204.409 261.522 208.135C262.584 212.063 267.941 218.104 269.067 218.194C270.194 218.284 279.977 221.552 286.657 218.689C293.337 215.826 295.558 208.825 295.558 208.825Z" fill="#263238" stroke="#263238" stroke-width="1.04742" stroke-linecap="round" stroke-linejoin="round"/>
<path d="M247.493 406.711C247.493 406.711 255.251 417.789 268.725 419.678C282.198 421.567 270.08 410.473 267.81 408.794C265.54 407.115 249.322 403.487 247.493 406.711Z" fill="#737373" stroke="#263238" stroke-width="1.04742" stroke-linecap="round" stroke-linejoin="round"/>
<path d="M319.272 409.559C319.272 409.559 334.085 412.902 332.942 415.84C331.799 418.778 319.729 418.554 312.674 416.875C305.618 415.196 298.988 412.692 299.902 409.979C300.817 407.265 319.272 409.559 319.272 409.559Z" fill="#737373" stroke="#263238" stroke-width="1.04742" stroke-linecap="round" stroke-linejoin="round"/>
<path d="M277.152 230.862C277.152 230.862 257.325 233.531 253.699 239.962C250.073 246.393 255.185 281.428 255.185 281.428C255.185 281.428 246.725 298.563 246.611 309.597C246.497 320.63 251.854 340.044 251.429 344.886C251.004 349.728 245.582 404.852 245.582 406.351C245.582 407.85 257.014 411.208 273.493 413.007C289.972 414.806 321.493 409.424 321.493 409.424C321.493 409.424 320.873 376.893 322.522 357.494C324.172 338.095 321.82 320.66 317.622 313.419C313.425 306.179 293.876 280.109 293.876 280.109C293.876 280.109 303.348 264.338 303.936 257.442C304.524 250.546 301.47 246.948 294.317 239.017C292.191 236.678 289.577 234.752 286.63 233.351C283.682 231.951 280.46 231.105 277.152 230.862Z" fill="#009444" stroke="#263238" stroke-width="1.04742" stroke-linecap="round" stroke-linejoin="round"/>
<path d="M293.925 280.124C293.925 280.124 303.397 264.353 303.985 257.457C304.573 250.561 301.519 246.963 294.366 239.032C294.023 238.643 293.663 238.298 293.304 237.938L293.043 238.163C285.693 249.182 261.391 268.011 254.156 273.497C254.712 278.19 255.185 281.428 255.185 281.428C255.185 281.428 246.725 298.563 246.611 309.597C246.746 314.624 247.292 319.635 248.244 324.588C265.409 315.593 288.372 298.758 300.8 289.373C296.913 284.096 293.925 280.124 293.925 280.124Z" fill="#737373" stroke="#263238" stroke-width="1.04742" stroke-linecap="round" stroke-linejoin="round"/>
<path d="M273.493 217.999C274.041 222.114 274.341 226.253 274.392 230.397C274.13 233.471 275.208 240.486 280.924 242.69C286.641 244.894 290.234 241.821 290.217 238.733C290.01 236.182 289.461 233.664 288.584 231.237L288.747 222.767C288.747 222.767 278.883 217.1 273.493 217.999Z" fill="white" stroke="#263238" stroke-width="1.04742" stroke-linecap="round" stroke-linejoin="round"/>
<path d="M268.365 212.498C268.365 212.498 264.168 209.11 264.037 213.997C263.907 218.884 268.806 220.503 269.884 220.833C270.794 220.946 271.717 220.737 272.465 220.248C272.465 220.248 280.075 226.245 286.183 226.635C292.292 227.024 294.774 224.431 296.211 214.252C297.649 204.073 286.2 193.744 286.2 193.744C286.2 193.744 276.401 210.324 268.365 212.498Z" fill="white" stroke="#263238" stroke-width="1.04742" stroke-linecap="round" stroke-linejoin="round"/>
<path d="M174.962 308.037C174.907 306.3 175.217 304.569 175.877 302.94C176.89 300.902 182.41 299.732 183.635 299.342C184.86 298.953 185.48 299.342 185.121 300.407C184.835 300.979 184.426 301.492 183.918 301.915C183.41 302.337 182.813 302.661 182.165 302.865C181.32 303.051 180.56 303.476 179.993 304.08C179.682 304.559 179.878 307.633 178.359 308.937C176.841 310.241 174.456 309.881 174.962 308.037Z" fill="white" stroke="#263238" stroke-width="1.04742" stroke-linecap="round" stroke-linejoin="round"/>
<path d="M300.131 262.959C300.131 262.959 280.532 260.605 271.893 273.168C263.253 285.73 247.101 329.685 217.164 336.761C187.228 343.837 178.67 287.29 160.705 288.864C143.589 290.363 131.634 288.864 121.361 306.134C115.873 315.383 88.4354 416.38 75.4678 417.414C34.1642 420.727 7.57568 418.569 7.57568 418.569" stroke="#263238" stroke-width="3.14226" stroke-linecap="round" stroke-linejoin="round"/>
<path d="M122.226 221.807C122.226 221.807 117.702 220.143 111.659 223.456C105.617 226.769 89.3499 263.048 90.5585 266.931C91.7671 270.814 108.948 278.01 118.601 280.498C128.253 282.987 145.744 286.045 145.744 286.045C145.744 286.045 151.167 293.796 152.979 294.066C155.616 294.033 158.242 293.757 160.819 293.241C160.819 293.241 164.085 295.73 165.343 292.956C166.6 290.183 164.134 286.6 161.423 283.826C158.712 281.053 147.247 279.674 147.247 279.674L116.167 260.005L129.233 237.863" fill="#263238"/>
<path d="M122.226 221.807C122.226 221.807 117.702 220.143 111.659 223.456C105.617 226.769 89.3499 263.048 90.5585 266.931C91.7671 270.814 108.948 278.01 118.601 280.498C128.253 282.987 145.744 286.045 145.744 286.045C145.744 286.045 151.167 293.796 152.979 294.066C155.616 294.033 158.242 293.757 160.819 293.241C160.819 293.241 164.085 295.73 165.343 292.956C166.6 290.183 164.134 286.6 161.423 283.826C158.712 281.053 147.247 279.674 147.247 279.674L116.167 260.005L129.233 237.863" stroke="#263238" stroke-width="1.04742" stroke-linecap="round" stroke-linejoin="round"/>
<path d="M152.98 294.051C155.616 294.018 158.243 293.742 160.819 293.226C160.819 293.226 164.085 295.715 165.343 292.941C166.6 290.168 164.134 286.585 161.423 283.812C158.712 281.038 147.247 279.659 147.247 279.659L116.167 260.005L120.805 252.075C109.193 245.434 101.485 245.928 97.3201 247.263C93.1554 256.437 89.987 265.132 90.5423 266.916C91.7509 270.799 108.932 277.995 118.584 280.483C128.237 282.972 145.728 286.03 145.728 286.03C145.728 286.03 151.167 293.781 152.98 294.051Z" fill="white" stroke="#263238" stroke-width="1.04742" stroke-linecap="round" stroke-linejoin="round"/>
<path d="M347.249 263.573C345.926 250.486 339.083 239.737 330.917 235.464L330.655 232.796L309.326 234.61C297.322 235.629 289.041 250.756 290.822 268.385C292.602 286.015 303.773 299.463 315.777 298.368L337.107 296.554L336.829 293.886C344.015 288.369 348.572 276.661 347.249 263.573Z" fill="#263238" stroke="#263238" stroke-width="1.04742" stroke-linecap="round" stroke-linejoin="round"/>
<path d="M356.901 262.794C355.513 249.047 348.735 237.728 340.095 233.231L339.801 230.427L330.672 231.207C318.063 232.286 309.358 248.162 311.22 266.691C313.082 285.221 324.841 299.358 337.449 298.278L346.579 297.499L346.301 294.695C353.847 288.789 358.289 276.496 356.901 262.794Z" fill="white" stroke="#263238" stroke-width="1.04742" stroke-linecap="round" stroke-linejoin="round"/>
<path d="M366.047 261.969C367.925 280.498 359.22 296.374 346.595 297.454C333.971 298.533 322.228 284.381 320.317 265.867C318.406 247.353 327.144 231.387 339.752 230.382C352.361 229.378 364.152 243.455 366.047 261.969Z" fill="white" stroke="#263238" stroke-width="1.04742" stroke-linecap="round" stroke-linejoin="round"/>
<path d="M375.846 251.145L340.422 254.144C339.925 254.187 339.424 254.14 338.947 254.005C338.47 253.87 338.027 253.65 337.643 253.357C337.26 253.065 336.942 252.706 336.71 252.3C336.478 251.895 336.335 251.452 336.29 250.995C336.243 250.539 336.294 250.079 336.441 249.642C336.588 249.204 336.828 248.797 337.146 248.445C337.465 248.093 337.856 247.801 338.298 247.588C338.74 247.375 339.223 247.244 339.72 247.203L375.144 244.204C375.64 244.161 376.142 244.208 376.618 244.343C377.095 244.478 377.538 244.698 377.922 244.991C378.306 245.283 378.623 245.642 378.856 246.048C379.088 246.453 379.231 246.896 379.276 247.352C379.323 247.808 379.272 248.268 379.125 248.706C378.978 249.144 378.738 249.55 378.419 249.903C378.101 250.255 377.709 250.546 377.268 250.76C376.826 250.973 376.343 251.104 375.846 251.145Z" fill="#737373" stroke="#263238" stroke-width="1.04742" stroke-linecap="round" stroke-linejoin="round"/>
<path d="M378.475 276.915L343.051 279.914C342.555 279.957 342.053 279.91 341.577 279.775C341.1 279.64 340.657 279.42 340.273 279.128C339.889 278.835 339.572 278.476 339.339 278.07C339.107 277.665 338.964 277.222 338.919 276.766C338.872 276.31 338.923 275.85 339.07 275.412C339.217 274.974 339.457 274.568 339.776 274.215C340.095 273.863 340.486 273.572 340.927 273.358C341.369 273.145 341.852 273.014 342.349 272.973L377.773 269.974C378.775 269.895 379.77 270.181 380.543 270.77C381.316 271.359 381.806 272.205 381.905 273.123C381.952 273.579 381.901 274.039 381.754 274.476C381.607 274.914 381.367 275.321 381.049 275.673C380.73 276.025 380.339 276.317 379.897 276.53C379.455 276.743 378.972 276.874 378.475 276.915Z" fill="#737373" stroke="#263238" stroke-width="1.04742" stroke-linecap="round" stroke-linejoin="round"/>
<path d="M264.903 233.306C264.903 233.306 256.377 234.805 252.343 239.302C248.309 243.8 240.029 278.505 241.94 282.492C243.851 286.48 274.473 291.487 283.93 292.207C291.533 292.483 299.149 292.172 306.696 291.277C306.696 291.277 314.862 291.082 317.1 290.737C319.337 290.393 323.453 288.369 323.518 287.604C323.584 286.84 323.175 285.011 320.121 284.786C317.067 284.561 310.518 282.552 309.685 282.492C311.648 282.019 313.638 281.648 315.646 281.383C315.646 281.383 316.071 279.884 312.707 279.884C309.342 279.884 306.288 279.674 305.014 281.383C304.103 282.714 303.327 284.119 302.695 285.58C302.695 285.58 283.832 286.795 273.591 282.207C263.351 277.62 260.117 276.091 260.117 276.091L267.467 249.107" fill="#009444"/>
<path d="M264.903 233.306C264.903 233.306 256.377 234.805 252.343 239.302C248.309 243.8 240.029 278.505 241.94 282.492C243.851 286.48 274.473 291.487 283.93 292.207C291.533 292.483 299.149 292.172 306.696 291.277C306.696 291.277 314.862 291.082 317.1 290.737C319.337 290.393 323.453 288.369 323.518 287.604C323.584 286.84 323.175 285.011 320.121 284.786C317.067 284.561 310.518 282.552 309.685 282.492C311.648 282.019 313.638 281.648 315.646 281.383C315.646 281.383 316.071 279.884 312.707 279.884C309.342 279.884 306.288 279.674 305.014 281.383C304.103 282.714 303.327 284.119 302.695 285.58C302.695 285.58 283.832 286.795 273.591 282.207C263.351 277.62 260.117 276.091 260.117 276.091L267.467 249.107" stroke="#263238" stroke-width="1.04742" stroke-linecap="round" stroke-linejoin="round"/>
<path d="M317.051 290.783C319.321 290.438 323.404 288.414 323.469 287.649C323.535 286.885 323.126 285.056 320.072 284.831C317.018 284.606 310.469 282.597 309.636 282.537C311.598 282.064 313.589 281.693 315.597 281.428C315.597 281.428 316.022 279.929 312.657 279.929C309.293 279.929 306.239 279.719 304.965 281.428C304.054 282.759 303.278 284.164 302.646 285.626C302.646 285.626 283.782 286.84 273.542 282.252C263.302 277.665 260.068 276.136 260.068 276.136L264.543 259.646C258.718 257.445 252.571 256.046 246.3 255.493C243.246 266.796 240.748 280.109 241.891 282.477C243.785 286.465 274.424 291.472 283.88 292.192C291.484 292.468 299.1 292.157 306.647 291.262C306.647 291.262 314.83 291.127 317.051 290.783Z" fill="white" stroke="#263238" stroke-width="1.04742" stroke-linecap="round" stroke-linejoin="round"/>
<path d="M179.111 305.129C179.111 305.129 172.807 309.462 173.77 312.325C174.734 315.188 179.993 309.327 181.299 307.603C182.606 305.879 181.577 303.27 179.111 305.129Z" fill="white" stroke="#263238" stroke-width="1.04742" stroke-linecap="round" stroke-linejoin="round"/>
<path d="M180.352 309.012C180.352 309.012 174.064 313.344 175.011 316.208C175.959 319.071 181.25 313.209 182.54 311.485C183.831 309.761 182.818 307.123 180.352 309.012Z" fill="white" stroke="#263238" stroke-width="1.04742" stroke-linecap="round" stroke-linejoin="round"/>
<path d="M183.341 311.53C183.341 311.53 177.053 315.863 178.016 318.726C178.98 321.59 184.239 315.728 185.545 314.004C186.852 312.28 185.823 309.642 183.341 311.53Z" fill="white" stroke="#263238" stroke-width="1.04742" stroke-linecap="round" stroke-linejoin="round"/>
<path d="M185.807 313.569C185.807 313.569 180.368 316.777 181.283 319.146C182.197 321.515 186.689 317.032 187.816 315.653C188.943 314.274 188.028 312.055 185.807 313.569Z" fill="white" stroke="#263238" stroke-width="1.04742" stroke-linecap="round" stroke-linejoin="round"/>
</svg>
