<svg width="100" height="100" viewBox="0 0 100 100" fill="none" xmlns="http://www.w3.org/2000/svg">
<g clip-path="url(#clip0_3_2604)">
<path d="M50 61.315C47.7622 61.3148 45.5746 60.651 43.714 59.4076C41.8534 58.1642 40.4033 56.3969 39.5471 54.3294C38.6908 52.2618 38.4669 49.9868 38.9036 47.7919C39.3403 45.5971 40.418 43.5811 42.0005 41.9987C43.5829 40.4164 45.5991 39.3389 47.794 38.9023C49.9888 38.4658 52.2638 38.69 54.3313 39.5464C56.3988 40.4028 58.1659 41.8531 59.4092 43.7138C60.6525 45.5745 61.316 47.7622 61.316 50C61.3126 53 60.1192 55.8762 57.9978 57.9975C55.8764 60.1187 53.0001 61.3118 50 61.315ZM50 40.685C48.1577 40.6852 46.3569 41.2317 44.8252 42.2554C43.2935 43.279 42.0997 44.7339 41.3948 46.436C40.6899 48.1381 40.5056 50.011 40.8651 51.8179C41.2247 53.6248 42.1119 55.2844 43.4147 56.5871C44.7175 57.8897 46.3772 58.7768 48.1841 59.1361C49.991 59.4954 51.8639 59.3109 53.566 58.6058C55.268 57.9008 56.7227 56.7069 57.7462 55.175C58.7697 53.6432 59.316 51.8423 59.316 50C59.3131 47.5302 58.3307 45.1625 56.5842 43.4162C54.8377 41.6699 52.4698 40.6877 50 40.685Z" fill="#33A077"/>
<path d="M50 55C49.0111 55 48.0444 54.7068 47.2222 54.1574C46.3999 53.6079 45.759 52.8271 45.3806 51.9134C45.0022 50.9998 44.9031 49.9945 45.0961 49.0245C45.289 48.0546 45.7652 47.1637 46.4645 46.4645C47.1637 45.7652 48.0546 45.289 49.0245 45.0961C49.9945 44.9031 50.9998 45.0022 51.9134 45.3806C52.8271 45.759 53.6079 46.3999 54.1574 47.2222C54.7068 48.0444 55 49.0111 55 50C54.9984 51.3256 54.4711 52.5964 53.5338 53.5338C52.5964 54.4711 51.3256 54.9984 50 55ZM50 47C49.4067 47 48.8266 47.176 48.3333 47.5056C47.8399 47.8352 47.4554 48.3038 47.2284 48.852C47.0013 49.4001 46.9419 50.0033 47.0576 50.5853C47.1734 51.1672 47.4591 51.7018 47.8787 52.1213C48.2982 52.5409 48.8328 52.8266 49.4147 52.9424C49.9967 53.0581 50.5999 52.9987 51.1481 52.7716C51.6962 52.5446 52.1648 52.1601 52.4944 51.6667C52.8241 51.1734 53 50.5933 53 50C53 49.2044 52.6839 48.4413 52.1213 47.8787C51.5587 47.3161 50.7957 47 50 47Z" fill="#33A077"/>
<path d="M50 69.053C46.2317 69.053 42.548 67.9356 39.4147 65.842C36.2815 63.7484 33.8394 60.7728 32.3974 57.2913C30.9553 53.8098 30.578 49.9789 31.3131 46.283C32.0483 42.5871 33.8629 39.1921 36.5275 36.5275C39.1921 33.8629 42.5871 32.0483 46.283 31.3131C49.9789 30.578 53.8098 30.9553 57.2913 32.3974C60.7728 33.8394 63.7484 36.2815 65.842 39.4147C67.9356 42.548 69.053 46.2317 69.053 50C69.0475 55.0515 67.0383 59.8945 63.4664 63.4664C59.8945 67.0383 55.0515 69.0475 50 69.053V69.053ZM50 32.947C46.6273 32.947 43.3302 33.9472 40.5259 35.821C37.7215 37.6948 35.5358 40.3581 34.2451 43.4741C32.9544 46.5902 32.6167 50.0189 33.2747 53.3269C33.9327 56.6349 35.5568 59.6734 37.9417 62.0583C40.3266 64.4432 43.3652 66.0674 46.6732 66.7254C49.9811 67.3834 53.4099 67.0457 56.5259 65.755C59.642 64.4643 62.3053 62.2785 64.1791 59.4742C66.0529 56.6698 67.053 53.3728 67.053 50C67.048 45.4788 65.2497 41.1443 62.0528 37.9473C58.8558 34.7503 54.5212 32.9521 50 32.947V32.947Z" fill="#33A077"/>
<path d="M50 76.789C44.7017 76.7888 39.5224 75.2175 35.1171 72.2738C30.7119 69.33 27.2784 65.1461 25.251 60.251C23.2235 55.356 22.6931 49.9696 23.7269 44.7731C24.7607 39.5766 27.3122 34.8034 31.0587 31.057C34.8053 27.3106 39.5786 24.7593 44.7751 23.7257C49.9717 22.6921 55.358 23.2227 60.253 25.2503C65.148 27.2779 69.3318 30.7115 72.2754 35.1169C75.2189 39.5223 76.79 44.7017 76.79 50C76.7818 57.1026 73.9567 63.9118 68.9343 68.934C63.912 73.9562 57.1026 76.7811 50 76.789ZM50 25.211C45.0973 25.2112 40.3047 26.6652 36.2283 29.3892C32.1519 32.1132 28.9748 35.9848 27.0987 40.5144C25.2226 45.044 24.7319 50.0282 25.6885 54.8367C26.6451 59.6452 29.0061 64.0621 32.4729 67.5288C35.9398 70.9955 40.3568 73.3564 45.1653 74.3128C49.9739 75.2692 54.9581 74.7782 59.4876 72.902C64.0172 71.0257 67.8886 67.8484 70.6124 63.7719C73.3362 59.6954 74.79 54.9028 74.79 50C74.7824 43.4277 72.1681 37.1269 67.5207 32.4797C62.8733 27.8325 56.5723 25.2184 50 25.211V25.211Z" fill="#33A077"/>
<path d="M50 84.526C43.1714 84.526 36.4962 82.5011 30.8184 78.7073C25.1406 74.9136 20.7153 69.5213 18.1021 63.2125C15.489 56.9037 14.8052 49.9617 16.1374 43.2643C17.4696 36.5669 20.7579 30.415 25.5864 25.5864C30.415 20.7579 36.5669 17.4696 43.2643 16.1374C49.9617 14.8052 56.9037 15.489 63.2125 18.1021C69.5213 20.7153 74.9136 25.1406 78.7073 30.8184C82.5011 36.4962 84.526 43.1714 84.526 50C84.5157 59.1537 80.8748 67.9295 74.4022 74.4022C67.9295 80.8748 59.1537 84.5157 50 84.526ZM50 17.474C43.567 17.474 37.2784 19.3816 31.9295 22.9556C26.5807 26.5296 22.4117 31.6095 19.9499 37.5529C17.4881 43.4962 16.844 50.0361 18.099 56.3455C19.354 62.6549 22.4518 68.4505 27.0007 72.9994C31.5495 77.5482 37.3451 80.646 43.6545 81.901C49.9639 83.1561 56.5038 82.5119 62.4472 80.0501C68.3905 77.5883 73.4704 73.4194 77.0444 68.0705C80.6184 62.7216 82.526 56.4331 82.526 50C82.5165 41.3765 79.0866 33.1089 72.9888 27.0112C66.8911 20.9134 58.6235 17.4835 50 17.474Z" fill="#33A077"/>
<path d="M50 92.263C41.6411 92.263 33.47 89.7843 26.5199 85.1404C19.5698 80.4965 14.1528 73.8959 10.954 66.1734C7.75525 58.4508 6.9183 49.9531 8.54903 41.7549C10.1798 33.5567 14.2049 26.0262 20.1155 20.1156C26.0261 14.205 33.5566 10.1798 41.7549 8.54909C49.9531 6.91836 58.4508 7.75531 66.1733 10.9541C73.8959 14.1529 80.4964 19.5698 85.1404 26.52C89.7843 33.4701 92.263 41.6412 92.263 50C92.2503 61.205 87.7935 71.9473 79.8704 79.8704C71.9473 87.7935 61.2049 92.2503 50 92.263ZM50 9.73702C42.0367 9.73702 34.2522 12.0984 27.631 16.5226C21.0098 20.9467 15.8492 27.2349 12.8018 34.592C9.75438 41.9491 8.95704 50.0447 10.5106 57.8549C12.0642 65.6652 15.8988 72.8394 21.5297 78.4703C27.1606 84.1011 34.3348 87.9358 42.145 89.4894C49.9553 91.0429 58.0508 90.2456 65.4079 87.1982C72.765 84.1508 79.0533 78.9902 83.4774 72.3689C87.9016 65.7477 90.263 57.9633 90.263 50C90.2508 39.3253 86.0049 29.0914 78.4567 21.5432C70.9086 13.9951 60.6746 9.74919 50 9.73702Z" fill="#33A077"/>
<path d="M50 100C40.111 100 30.444 97.0676 22.2215 91.5735C13.9991 86.0794 7.59043 78.2705 3.80605 69.1342C0.0216641 59.9979 -0.968503 49.9446 0.960759 40.2455C2.89002 30.5465 7.65206 21.6373 14.6447 14.6447C21.6373 7.65206 30.5465 2.89002 40.2455 0.960759C49.9446 -0.968503 59.9979 0.0216641 69.1342 3.80605C78.2705 7.59043 86.0794 13.9991 91.5735 22.2215C97.0676 30.444 100 40.111 100 50C99.9849 63.2562 94.7122 75.9651 85.3387 85.3387C75.9651 94.7122 63.2562 99.9849 50 100ZM50 2.00002C40.5065 2.00002 31.2262 4.81517 23.3327 10.0895C15.4391 15.3638 9.28681 22.8604 5.6538 31.6312C2.0208 40.4021 1.07024 50.0533 2.92233 59.3644C4.77442 68.6754 9.34598 77.2282 16.0589 83.9411C22.7718 90.6541 31.3246 95.2256 40.6357 97.0777C49.9468 98.9298 59.598 97.9792 68.3688 94.3462C77.1397 90.7132 84.6363 84.561 89.9106 76.6674C95.1849 68.7738 98 59.4935 98 50C97.9857 37.274 92.924 25.0733 83.9254 16.0747C74.9267 7.07603 62.726 2.01432 50 2.00002Z" fill="#33A077"/>
</g>
<defs>
<clipPath id="clip0_3_2604">
<rect width="100" height="100" fill="white"/>
</clipPath>
</defs>
</svg>
