<svg width="22" height="23" viewBox="0 0 22 23" fill="none" xmlns="http://www.w3.org/2000/svg">
<path d="M11.183 15.4032C9.02857 15.4032 7.27979 13.6544 7.27979 11.5C7.27979 9.34558 9.02857 7.5968 11.183 7.5968C13.3374 7.5968 15.0862 9.34558 15.0862 11.5C15.0862 13.6544 13.3374 15.4032 11.183 15.4032ZM11.183 8.94895C9.77676 8.94895 8.63194 10.0938 8.63194 11.5C8.63194 12.9062 9.77676 14.0511 11.183 14.0511C12.5892 14.0511 13.7341 12.9062 13.7341 11.5C13.7341 10.0938 12.5892 8.94895 11.183 8.94895Z" fill="#464646"/>
<path d="M11.1834 19.6309C7.79396 19.6309 4.59387 17.6478 2.39437 14.2043C1.43885 12.7169 1.43885 10.2921 2.39437 8.7957C4.60289 5.35223 7.80298 3.36907 11.1834 3.36907C14.5637 3.36907 17.7638 5.35223 19.9633 8.7957C20.9188 10.2831 20.9188 12.7079 19.9633 14.2043C17.7638 17.6478 14.5637 19.6309 11.1834 19.6309ZM11.1834 4.72122C8.27172 4.72122 5.48629 6.47 3.5392 9.52586C2.86312 10.5805 2.86312 12.4195 3.5392 13.4741C5.48629 16.53 8.27172 18.2788 11.1834 18.2788C14.095 18.2788 16.8804 16.53 18.8275 13.4741C19.5036 12.4195 19.5036 10.5805 18.8275 9.52586C16.8804 6.47 14.095 4.72122 11.1834 4.72122Z" fill="#464646"/>
</svg>
