<svg width="34" height="40" viewBox="0 0 34 40" fill="none" xmlns="http://www.w3.org/2000/svg">
<path d="M16.2919 23.9817V32.1025C16.2919 32.4138 16.1682 32.7124 15.9481 32.9324C15.728 33.1526 15.4295 33.2762 15.1181 33.2762C14.8069 33.2762 14.5083 33.1526 14.2882 32.9324C14.068 32.7124 13.9444 32.4138 13.9444 32.1025V23.993C14.2712 24.2317 14.663 24.3649 15.0676 24.3749C15.5086 24.3874 15.9406 24.2487 16.2919 23.9817ZM26.2884 21.6343C25.9905 21.6343 25.7047 21.7526 25.4941 21.9632C25.2835 22.1738 25.1652 22.4596 25.1652 22.7575V24.1727C25.1652 24.484 25.2888 24.7826 25.509 25.0026C25.729 25.2228 26.0276 25.3464 26.3389 25.3464C26.6503 25.3464 26.9488 25.2228 27.1688 25.0026C27.389 24.7826 27.5127 24.484 27.5127 24.1727V22.8136C27.5214 22.6526 27.4954 22.4915 27.4363 22.3414C27.3772 22.1914 27.2866 22.0557 27.1703 21.9438C27.0542 21.8319 26.9152 21.7464 26.7631 21.6929C26.6109 21.6395 26.449 21.6195 26.2884 21.6343ZM11.3947 27.0593C10.9906 27.0472 10.5993 26.9142 10.2715 26.6774V34.8206C10.2715 35.1335 10.3958 35.4335 10.6169 35.6546C10.8381 35.8758 11.1381 36 11.4509 36C11.7637 36 12.0636 35.8758 12.2848 35.6546C12.506 35.4335 12.6302 35.1335 12.6302 34.8206V26.7336C12.2635 26.9707 11.8307 27.0848 11.3947 27.0593ZM22.6267 19.1969C22.4745 19.1893 22.3225 19.2127 22.1796 19.2658C22.0368 19.3188 21.9063 19.4003 21.7959 19.5053C21.6856 19.6105 21.5979 19.7368 21.5379 19.8769C21.478 20.017 21.4471 20.1678 21.4474 20.3201V26.5763C21.4474 26.8892 21.5716 27.1892 21.7928 27.4103C22.014 27.6315 22.3139 27.7557 22.6267 27.7557C22.9395 27.7557 23.2395 27.6315 23.4607 27.4103C23.6819 27.1892 23.8061 26.8892 23.8061 26.5763V20.3987C23.8151 20.2367 23.7888 20.0746 23.729 19.9236C23.6693 19.7727 23.5776 19.6364 23.4601 19.5243C23.3427 19.4122 23.2024 19.3269 23.0488 19.2743C22.8953 19.2216 22.7321 19.2029 22.5706 19.2194L22.6267 19.1969ZM18.8977 21.6006C18.4746 21.5976 18.0628 21.4643 17.7183 21.2187V29.3843C17.7183 29.6972 17.8426 29.9972 18.0637 30.2183C18.285 30.4395 18.5849 30.5637 18.8977 30.5637C19.2105 30.5637 19.5104 30.4395 19.7317 30.2183C19.9528 29.9972 20.0771 29.6972 20.0771 29.3843V21.2299C19.7208 21.4953 19.2858 21.6337 18.8415 21.623L18.8977 21.6006ZM8.84505 27.8568V5.04458C8.8421 4.76651 8.72955 4.50085 8.53187 4.30526C8.33418 4.10968 8.06732 3.99999 7.78924 4H7.54214C7.26406 3.99999 6.99719 4.10968 6.79951 4.30526C6.60183 4.50085 6.48928 4.76651 6.48633 5.04458V27.8568C6.48633 28.1368 6.59757 28.4054 6.79557 28.6034C6.99357 28.8014 7.26212 28.9126 7.54214 28.9126H7.78924C8.06927 28.9126 8.33781 28.8014 8.53581 28.6034C8.73382 28.4054 8.84505 28.1368 8.84505 27.8568ZM11.5183 26.1945H11.2712C10.9912 26.1945 10.7226 26.0833 10.5246 25.8852C10.3266 25.6872 10.2154 25.4187 10.2154 25.1386V7.76272C10.2183 7.48466 10.3309 7.21898 10.5285 7.02341C10.7262 6.82783 10.9931 6.71814 11.2712 6.71815H11.5183C11.7964 6.71814 12.0632 6.82783 12.2609 7.02341C12.4586 7.21898 12.5711 7.48466 12.5741 7.76272V25.1611C12.5741 25.4411 12.4628 25.7097 12.2648 25.9077C12.0668 26.1057 11.7983 26.2169 11.5183 26.2169V26.1945ZM15.2361 23.5212H14.9777C14.7007 23.5212 14.435 23.4112 14.2391 23.2153C14.0432 23.0194 13.9332 22.7538 13.9332 22.4767V10.4584C13.9317 10.3203 13.9576 10.1832 14.0094 10.0552C14.0612 9.92718 14.1379 9.8107 14.2351 9.71251C14.3322 9.61432 14.4479 9.53637 14.5754 9.48318C14.7029 9.42998 14.8396 9.40259 14.9777 9.4026H15.2361C15.5142 9.40556 15.7798 9.5181 15.9754 9.71578C16.171 9.91346 16.2806 10.1803 16.2806 10.4584V22.4767C16.2806 22.7538 16.1706 23.0194 15.9747 23.2153C15.7788 23.4112 15.5132 23.5212 15.2361 23.5212ZM18.9539 20.7694H18.718C18.4399 20.7694 18.173 20.6598 17.9753 20.4641C17.7776 20.2686 17.6651 20.0029 17.6622 19.7248V13.2552C17.653 13.111 17.6734 12.9664 17.7224 12.8304C17.7712 12.6945 17.8476 12.5699 17.9466 12.4647C18.0455 12.3593 18.165 12.2755 18.2978 12.2182C18.4304 12.1611 18.5734 12.1316 18.718 12.132H18.9651C19.2451 12.132 19.5137 12.2432 19.7117 12.4412C19.9097 12.6392 20.0209 12.9078 20.0209 13.1878V19.7024C20.0224 19.842 19.9962 19.9805 19.9437 20.1098C19.8914 20.2392 19.8139 20.357 19.7156 20.4562C19.6174 20.5554 19.5006 20.6342 19.3717 20.688C19.2429 20.7418 19.1047 20.7694 18.9651 20.7694H18.9539ZM22.6829 18.3545H22.4358C22.1558 18.3545 21.8872 18.2433 21.6892 18.0453C21.4912 17.8473 21.38 17.5787 21.38 17.2987V15.6251C21.3829 15.347 21.4954 15.0814 21.6931 14.8858C21.8908 14.6902 22.1577 14.5806 22.4358 14.5806H22.6829C22.961 14.5806 23.2279 14.6902 23.4255 14.8858C23.6232 15.0814 23.7358 15.347 23.7387 15.6251V17.2987C23.7387 17.5768 23.6291 17.8437 23.4334 18.0414C23.2379 18.239 22.9722 18.3516 22.6941 18.3545H22.6829Z" fill="#1E934C"/>
</svg>
