<svg width="17" height="16" viewBox="0 0 17 16" fill="none" xmlns="http://www.w3.org/2000/svg">
<g clip-path="url(#clip0_401_1851)">
<path d="M1.46582 4.00645H15.0658M5.39862 4.00005V3.63365C5.39862 2.88213 5.69716 2.16139 6.22856 1.62999C6.75997 1.09859 7.4807 0.800049 8.23222 0.800049C8.98374 0.800049 9.70448 1.09859 10.2359 1.62999C10.7673 2.16139 11.0658 2.88213 11.0658 3.63365V4.00005M6.64822 7.20005V12M9.88982 7.20005V12M11.8658 15.2H4.66582C4.24147 15.2 3.83451 15.0315 3.53445 14.7314C3.23439 14.4314 3.06582 14.0244 3.06582 13.6V4.00005H13.4658V13.6C13.4658 14.0244 13.2972 14.4314 12.9972 14.7314C12.6971 15.0315 12.2902 15.2 11.8658 15.2Z" stroke="#1A1A1A" stroke-width="1.28" stroke-linecap="round" stroke-linejoin="round"/>
</g>
<defs>
<clipPath id="clip0_401_1851">
<rect width="16" height="16" fill="white" transform="translate(0.265625)"/>
</clipPath>
</defs>
</svg>
